<svg xmlns="http://www.w3.org/2000/svg" xmlns:xlink="http://www.w3.org/1999/xlink" width="500" zoomAndPan="magnify" viewBox="0 0 375 374.999991" height="500" preserveAspectRatio="xMidYMid meet" version="1.0"><defs><clipPath id="163c6c8a36"><path d="M 3.875 16 L 370 16 L 370 359 L 3.875 359 Z M 3.875 16 " clip-rule="nonzero"/></clipPath></defs><g clip-path="url(#163c6c8a36)"><path fill="#5e2102" d="M 150.210938 180.28125 C 149.808594 179.476562 149.410156 179.476562 149.007812 179.476562 L 59.203125 179.476562 C 58.398438 179.476562 57.195312 179.878906 57.195312 181.082031 C 52.386719 193.910156 48.375 205.539062 44.769531 216.363281 C 43.566406 219.96875 42.363281 223.578125 41.5625 227.1875 C 39.957031 232.800781 39.15625 236.40625 39.15625 238.414062 C 38.753906 240.015625 38.753906 243.625 38.753906 249.238281 C 38.753906 253.246094 39.15625 256.855469 39.957031 259.660156 C 41.960938 266.074219 44.769531 269.683594 48.777344 275.296875 C 49.578125 276.097656 49.980469 276.902344 49.980469 278.105469 C 49.980469 278.503906 49.578125 278.90625 48.777344 278.90625 L 4.675781 278.90625 C 4.277344 278.90625 3.875 278.503906 3.875 278.105469 C 3.875 278.105469 3.875 278.105469 3.875 277.703125 C 5.078125 276.097656 5.878906 274.496094 6.679688 273.695312 C 16.703125 263.269531 24.722656 251.242188 31.136719 238.011719 C 35.144531 230.394531 38.355469 222.375 41.5625 213.957031 C 44.769531 204.734375 60.40625 160.234375 88.871094 80.449219 C 90.472656 75.640625 94.082031 66.015625 98.890625 52.386719 C 99.695312 50.382812 99.695312 49.179688 99.695312 48.375 C 99.292969 47.175781 98.890625 45.570312 98.089844 43.964844 C 94.484375 34.746094 90.875 25.523438 87.667969 17.105469 C 87.667969 17.105469 87.667969 16.703125 87.667969 16.703125 C 87.667969 16.703125 88.066406 16.304688 88.066406 16.304688 L 127.359375 16.304688 C 128.160156 16.304688 128.960938 16.703125 128.960938 17.507812 C 151.414062 76.039062 173.464844 133.371094 195.515625 190.300781 C 195.515625 190.300781 196.316406 192.707031 198.320312 198.320312 C 204.335938 214.359375 211.550781 229.59375 219.570312 244.828125 C 223.578125 252.445312 227.1875 258.457031 230.796875 262.867188 C 236.808594 270.886719 240.015625 274.894531 240.015625 275.296875 C 240.417969 275.699219 240.816406 276.5 241.21875 277.703125 C 241.21875 278.503906 240.417969 279.304688 240.015625 279.304688 L 173.0625 279.304688 C 172.660156 279.304688 172.261719 278.90625 172.261719 278.503906 C 172.261719 275.699219 174.265625 272.890625 176.671875 268.882812 C 177.070312 268.082031 177.472656 266.476562 177.875 263.671875 C 177.875 262.066406 177.875 260.464844 177.875 258.859375 C 176.671875 251.242188 174.667969 243.625 171.859375 236.40625 C 167.449219 224.78125 160.632812 206.738281 151.414062 182.285156 C 151.011719 181.082031 150.609375 180.679688 150.210938 180.28125 Z M 276.097656 134.171875 C 274.894531 134.574219 274.894531 134.976562 276.097656 135.777344 C 277.703125 136.179688 279.707031 136.980469 282.113281 137.382812 C 305.367188 142.191406 324.609375 152.617188 340.246094 167.851562 C 351.871094 179.476562 360.292969 193.109375 365.503906 209.546875 C 367.507812 216.363281 368.710938 223.175781 369.113281 230.394531 C 371.117188 258.457031 363.5 283.316406 346.261719 305.367188 C 328.621094 328.21875 306.167969 343.453125 278.105469 351.871094 C 266.878906 355.082031 255.652344 357.085938 244.425781 357.886719 C 241.621094 358.289062 237.609375 358.289062 232.398438 358.289062 C 225.984375 358.289062 221.574219 358.6875 216.363281 357.886719 C 205.9375 356.683594 199.925781 355.882812 198.320312 355.480469 C 192.308594 353.878906 188.296875 352.675781 186.292969 352.273438 C 177.070312 349.46875 169.054688 345.457031 161.4375 340.246094 C 158.628906 338.242188 158.628906 337.839844 161.835938 339.042969 C 163.839844 339.445312 166.648438 341.449219 169.054688 342.25 C 191.90625 352.273438 215.558594 355.480469 240.015625 351.472656 C 247.632812 350.269531 254.449219 348.265625 260.464844 345.457031 C 274.894531 339.84375 286.523438 331.828125 296.144531 322.203125 C 314.988281 302.558594 325.410156 279.304688 328.21875 252.042969 C 329.019531 245.226562 329.019531 238.011719 328.21875 230.796875 C 326.214844 211.148438 320.199219 193.507812 309.777344 177.070312 C 303.363281 167.449219 296.546875 159.429688 289.328125 153.820312 C 282.113281 148.207031 274.496094 144.195312 266.878906 141.792969 C 259.660156 139.785156 252.042969 138.582031 244.425781 138.582031 C 243.222656 138.582031 242.824219 137.78125 242.824219 136.578125 C 242.824219 136.578125 242.824219 136.179688 242.824219 136.179688 C 243.222656 135.375 243.625 134.976562 244.828125 134.574219 C 249.636719 133.773438 254.046875 132.167969 257.65625 129.761719 C 266.074219 124.152344 272.492188 113.324219 275.699219 103.703125 C 277.703125 97.289062 278.90625 90.074219 279.707031 82.855469 C 280.109375 76.441406 279.707031 69.226562 278.105469 61.207031 C 276.097656 51.183594 272.492188 41.960938 266.476562 33.945312 C 262.867188 28.730469 255.652344 23.117188 249.636719 21.515625 C 247.632812 21.113281 244.425781 20.714844 239.214844 20.714844 C 229.59375 20.714844 217.964844 20.714844 204.335938 20.714844 C 203.53125 20.714844 202.730469 21.515625 202.730469 22.316406 C 202.730469 84.859375 202.730469 125.351562 202.730469 143.394531 C 202.730469 147.003906 203.132812 151.011719 203.132812 154.621094 C 203.132812 156.222656 202.730469 156.625 201.929688 156.222656 L 166.246094 64.011719 C 165.847656 62.808594 165.445312 61.207031 165.445312 60.003906 C 165.445312 53.988281 165.445312 47.574219 165.445312 40.757812 C 165.445312 37.152344 165.042969 33.140625 164.242188 29.933594 C 163.441406 24.722656 159.832031 21.113281 154.621094 20.714844 C 153.820312 20.714844 153.015625 20.714844 151.8125 20.714844 C 150.609375 20.3125 149.808594 19.910156 149.808594 19.109375 L 149.410156 17.90625 C 149.410156 16.703125 149.808594 16.304688 150.609375 16.304688 C 211.953125 16.304688 242.421875 16.304688 242.421875 16.304688 C 251.644531 16.304688 258.457031 16.703125 264.070312 17.507812 C 277.703125 19.511719 290.132812 25.523438 300.957031 34.746094 C 304.5625 37.953125 307.773438 42.363281 311.378906 47.574219 C 318.996094 59.601562 321.804688 74.835938 318.996094 88.871094 C 314.988281 108.914062 300.554688 124.550781 281.710938 132.570312 C 280.109375 133.371094 277.703125 133.773438 276.097656 134.171875 Z M 102.5 55.996094 C 102.5 55.59375 102.101562 55.59375 102.101562 55.59375 C 101.699219 55.59375 101.699219 55.59375 101.699219 55.996094 L 59.203125 174.667969 C 59.203125 174.667969 59.203125 175.066406 59.203125 175.066406 C 59.203125 175.066406 59.601562 175.46875 60.003906 175.46875 L 147.804688 175.46875 C 148.207031 175.46875 148.207031 175.066406 148.207031 175.066406 C 148.207031 175.066406 148.207031 174.667969 148.207031 174.667969 Z M 102.5 55.996094 " fill-opacity="1" fill-rule="evenodd"/></g></svg>