<svg xmlns="http://www.w3.org/2000/svg" xmlns:xlink="http://www.w3.org/1999/xlink" width="500" zoomAndPan="magnify" viewBox="0 0 375 374.999991" height="500" preserveAspectRatio="xMidYMid meet" version="1.0"><defs><clipPath id="87a01cf5e0"><path d="M 61.105469 50.300781 L 313 50.300781 L 313 324.800781 L 61.105469 324.800781 Z M 61.105469 50.300781 " clip-rule="nonzero"/></clipPath></defs><g clip-path="url(#87a01cf5e0)"><path fill="#243540" d="M 158.402344 51.148438 C 157.90625 51.644531 158.167969 52.839844 159.242188 54.964844 C 160.519531 57.492188 161.5625 58.558594 162.4375 58.222656 C 163.273438 57.902344 163.21875 56.84375 162.257812 54.9375 C 160.664062 51.757812 159.214844 50.335938 158.402344 51.148438 M 207.566406 55.519531 C 205.753906 58.007812 205.28125 59.128906 205.40625 60.636719 C 205.742188 64.667969 210.980469 59.996094 210.992188 55.65625 C 210.996094 54.90625 210.003906 53.945312 209.203125 53.925781 C 208.945312 53.917969 208.207031 54.636719 207.566406 55.519531 M 127.953125 61.464844 C 126.933594 62.484375 127.003906 63.945312 128.125 65.066406 C 129.25 66.191406 129.976562 66.234375 130.972656 65.238281 C 132.257812 63.953125 131.898438 62.144531 130.191406 61.261719 C 128.839844 60.5625 128.855469 60.5625 127.953125 61.464844 M 164 62.222656 C 163.832031 62.746094 164.484375 64.320312 166.113281 67.324219 C 168.558594 71.835938 170.664062 74.675781 171.566406 74.675781 C 172.203125 74.675781 172.871094 73.511719 172.871094 72.402344 C 172.871094 70.871094 167.847656 62.585938 166.472656 61.851562 C 165.324219 61.234375 164.261719 61.394531 164 62.222656 M 134.75 68.253906 C 134.332031 68.671875 133.992188 69.339844 133.992188 69.738281 C 133.992188 71.925781 154.832031 93.46875 158.757812 95.34375 C 160.328125 96.089844 161.355469 95.472656 160.984375 94 C 160.367188 91.53125 155.457031 85.527344 147.246094 77.195312 C 140.824219 70.6875 138.730469 68.839844 136.863281 68.0625 C 135.597656 67.53125 135.460938 67.546875 134.75 68.253906 M 203.121094 68.980469 C 202.300781 69.488281 199.519531 77.609375 198.84375 81.476562 C 198.1875 85.234375 198.96875 86.980469 200.855469 85.96875 C 203.753906 84.421875 207.550781 71.796875 205.765625 69.644531 C 205.25 69.027344 203.683594 68.632812 203.121094 68.980469 M 257.691406 74.257812 C 254.554688 75.855469 240.121094 89.335938 234.964844 95.480469 C 232.414062 98.523438 230.246094 101.957031 230.246094 102.957031 C 230.246094 103.699219 231.65625 104.136719 232.730469 103.726562 C 233.292969 103.511719 236.914062 100.242188 240.777344 96.460938 C 244.636719 92.675781 250.453125 87.035156 253.699219 83.921875 C 259.144531 78.695312 261.191406 76.308594 261.195312 75.171875 C 261.195312 74.59375 260.136719 73.542969 259.550781 73.542969 C 259.296875 73.542969 258.460938 73.863281 257.691406 74.257812 M 214.304688 77.90625 C 211.472656 79.445312 212.441406 82.601562 215.746094 82.601562 C 216.894531 82.601562 218.542969 81.042969 218.542969 79.960938 C 218.542969 78.984375 216.929688 77.3125 216.011719 77.332031 C 215.640625 77.339844 214.871094 77.597656 214.304688 77.90625 M 167.300781 80.886719 C 164.972656 82.84375 165.179688 86.257812 167.789062 88.863281 C 169.195312 90.269531 169.683594 90.527344 170.945312 90.527344 C 171.996094 90.527344 172.777344 90.242188 173.589844 89.558594 C 177.085938 86.613281 174.988281 80.503906 170.328125 80.054688 C 168.75 79.902344 168.328125 80.019531 167.300781 80.886719 M 124.3125 86.738281 C 123.046875 87.269531 122.292969 88.660156 122.292969 90.460938 C 122.292969 93.914062 126.378906 95.996094 128.898438 93.832031 C 130.773438 92.21875 130.460938 88.546875 128.332031 87.21875 C 127.347656 86.605469 125.234375 86.351562 124.3125 86.738281 M 211.132812 101.660156 C 211 102 211.074219 102.460938 211.296875 102.683594 C 211.871094 103.257812 212.960938 102.730469 212.8125 101.953125 C 212.644531 101.082031 211.433594 100.875 211.132812 101.660156 M 135 103.992188 C 134.859375 104.128906 134.746094 104.734375 134.746094 105.335938 C 134.746094 106.339844 135.011719 106.554688 137.863281 107.878906 C 144.660156 111.039062 147.957031 111.617188 147.957031 109.648438 C 147.957031 108.558594 146.859375 107.53125 144.128906 106.066406 C 140.667969 104.210938 135.871094 103.117188 135 103.992188 M 260.558594 107.328125 C 256.78125 108.363281 252.519531 110.214844 249.722656 112.042969 C 246.660156 114.039062 245.59375 115.289062 245.785156 116.644531 C 245.960938 117.871094 247.878906 117.984375 250.574219 116.921875 C 254.574219 115.347656 262.363281 111.171875 263.953125 109.746094 C 265.289062 108.550781 265.472656 108.21875 265.121094 107.636719 C 264.589844 106.753906 263.035156 106.648438 260.558594 107.328125 M 88.128906 107.65625 C 87.101562 108.410156 86.503906 112.542969 86.019531 122.328125 C 85.152344 139.742188 87.121094 149.253906 94.089844 161.300781 C 96.230469 164.996094 106.761719 180.890625 108.675781 183.304688 C 110.414062 185.5 114.4375 188.667969 115.492188 188.667969 C 115.859375 188.667969 116.359375 188.425781 116.605469 188.128906 C 117.25 187.351562 116.550781 186.199219 112.453125 181.308594 C 106.671875 174.402344 103.3125 169.636719 97.878906 160.636719 C 90.367188 148.1875 89.324219 145.046875 88.65625 132.804688 C 88.199219 124.492188 88.390625 116.859375 89.164062 112.609375 L 89.640625 109.96875 L 90.960938 110.042969 C 91.6875 110.085938 96.699219 111.578125 102.097656 113.363281 C 107.496094 115.148438 115.136719 117.542969 119.082031 118.683594 C 123.027344 119.828125 126.679688 120.90625 127.199219 121.078125 C 127.71875 121.25 128.820312 121.585938 129.652344 121.820312 C 134.460938 123.175781 149.335938 127.425781 156.640625 129.527344 C 168.46875 132.933594 185.027344 137.453125 190.140625 138.671875 C 193.382812 139.445312 193.40625 139.511719 191.710938 143.582031 C 189.15625 149.71875 182.851562 158.601562 176.082031 165.597656 C 165.699219 176.332031 157.59375 180.839844 139.277344 186.058594 C 130.011719 188.699219 129.652344 188.882812 130.761719 190.398438 C 131.230469 191.039062 131.515625 191.007812 136.492188 189.828125 C 147.871094 187.128906 156.855469 183.554688 163.652344 179.035156 C 172.925781 172.863281 182.398438 163.285156 188.84375 153.5625 C 192 148.804688 195.511719 141.742188 195.515625 140.140625 C 195.523438 137.375 193.652344 136.625 174.003906 131.53125 C 169.539062 130.371094 160.539062 127.875 153.996094 125.980469 C 147.457031 124.089844 140.875 122.1875 139.371094 121.757812 C 137.863281 121.332031 136.703125 120.910156 136.789062 120.820312 C 136.878906 120.734375 138.195312 121.003906 139.71875 121.421875 C 149.316406 124.054688 149.628906 124.089844 149.398438 122.550781 C 149.304688 121.910156 148.792969 121.589844 147.015625 121.070312 C 145.769531 120.707031 143.304688 119.980469 141.542969 119.457031 C 139.777344 118.933594 134.597656 117.542969 130.027344 116.367188 C 125.460938 115.191406 120.738281 113.96875 119.53125 113.648438 C 117.972656 113.238281 117.222656 113.1875 116.933594 113.476562 C 116.246094 114.160156 116.855469 114.898438 118.515625 115.394531 C 120.398438 115.960938 120.382812 116.335938 118.496094 115.804688 C 108.554688 113.015625 103.109375 111.410156 98.839844 110.011719 C 94.074219 108.445312 92.332031 107.9375 89.796875 107.371094 C 89.238281 107.246094 88.523438 107.371094 88.128906 107.65625 M 163.90625 108.351562 C 162.128906 109.210938 163.25 112.207031 165.511719 112.632812 C 167.964844 113.09375 169.011719 110.453125 167.046875 108.761719 C 165.945312 107.816406 165.214844 107.71875 163.90625 108.351562 M 187.78125 110.851562 C 185.222656 112.414062 185.097656 115.242188 187.550781 116.039062 C 189.210938 116.582031 190.378906 116.324219 191.546875 115.15625 C 192.859375 113.84375 192.839844 111.988281 191.503906 110.9375 C 190.277344 109.972656 189.253906 109.949219 187.78125 110.851562 M 211.164062 118.484375 C 209.589844 118.941406 208.367188 120.339844 208.101562 121.980469 C 207.90625 123.183594 208.039062 123.507812 209.210938 124.679688 C 210.304688 125.773438 210.820312 126.007812 212.109375 126.007812 C 213.902344 126.007812 215.699219 125.203125 216.265625 124.144531 C 217.035156 122.703125 216.730469 120.742188 215.554688 119.5625 C 214.945312 118.957031 214.195312 118.460938 213.886719 118.460938 C 213.574219 118.460938 213.09375 118.390625 212.816406 118.304688 C 212.542969 118.222656 211.796875 118.300781 211.164062 118.484375 M 228.558594 122.21875 C 227.0625 123.875 229.429688 126.296875 231.582031 125.316406 C 232.453125 124.917969 232.695312 124.324219 232.527344 122.988281 C 232.339844 121.476562 229.695312 120.964844 228.558594 122.21875 M 152.867188 123.699219 C 152.867188 124.089844 153.078125 124.582031 153.335938 124.796875 C 153.847656 125.21875 162.117188 127.601562 173.25 130.53125 C 175.011719 130.996094 179.28125 132.207031 182.734375 133.222656 C 189.949219 135.34375 190.335938 135.394531 190.167969 134.246094 C 190.019531 133.257812 189.277344 132.945312 179.664062 129.839844 C 167.308594 125.84375 156.699219 122.988281 154.214844 122.988281 C 153.144531 122.988281 152.867188 123.136719 152.867188 123.699219 M 280.285156 124.335938 C 279.484375 125.136719 279.535156 126.882812 280.382812 127.648438 C 281.839844 128.96875 283.84375 128.019531 283.84375 126.007812 C 283.84375 124.699219 282.96875 123.746094 281.769531 123.746094 C 281.277344 123.746094 280.613281 124.011719 280.285156 124.335938 M 256.441406 127.292969 C 253.265625 130.464844 256.164062 135.007812 260.070312 132.988281 C 261.464844 132.269531 261.953125 131.359375 261.953125 129.484375 C 261.953125 128.382812 261.695312 127.742188 260.957031 127.003906 C 259.539062 125.589844 258.050781 125.683594 256.441406 127.292969 M 282.902344 141.332031 C 277.75 142.246094 272.167969 143.347656 266.859375 144.492188 C 264.054688 145.097656 259.300781 146.121094 256.289062 146.765625 C 245.851562 148.992188 237.171875 151 226.09375 153.746094 C 215.933594 156.265625 209.730469 157.695312 194.007812 161.140625 C 188.253906 162.402344 184.714844 163.699219 184.335938 164.683594 C 184.214844 165.007812 184.382812 165.683594 184.710938 166.1875 L 185.3125 167.101562 L 187.867188 166.367188 C 196.386719 163.914062 265.789062 147.816406 267.304688 147.945312 C 267.917969 147.996094 264.835938 148.792969 260.0625 149.816406 C 256.0625 150.675781 255.003906 151.308594 255.957031 152.257812 C 256.640625 152.945312 258.4375 152.640625 268.558594 150.121094 C 281.148438 146.988281 289.691406 144.246094 290.84375 142.976562 C 292.703125 140.921875 289.25 140.207031 282.902344 141.332031 M 293.355469 143.070312 C 293.039062 143.386719 292.902344 145.460938 292.898438 149.960938 C 292.890625 166.753906 290.777344 176.015625 284.003906 188.964844 C 282.671875 191.515625 281.578125 193.828125 281.578125 194.109375 C 281.578125 194.386719 281.839844 194.832031 282.15625 195.09375 C 283.074219 195.855469 284.238281 194.445312 286.78125 189.488281 C 291.089844 181.089844 294.003906 171.101562 295.382812 159.996094 C 295.921875 155.671875 296.113281 145.070312 295.683594 143.46875 C 295.433594 142.527344 294.121094 142.304688 293.355469 143.070312 M 231 144.128906 C 230.585938 144.542969 230.246094 145.195312 230.246094 145.578125 C 230.246094 146.492188 231.414062 147.523438 232.445312 147.523438 C 233.386719 147.523438 234.773438 146.285156 234.773438 145.449219 C 234.773438 144.636719 233.394531 143.371094 232.507812 143.371094 C 232.09375 143.371094 231.414062 143.710938 231 144.128906 M 210.453125 144.34375 C 210.128906 144.667969 209.863281 145.082031 209.863281 145.261719 C 209.863281 145.746094 210.980469 146.769531 211.511719 146.769531 C 212.855469 146.769531 213.339844 144.777344 212.152344 144.140625 C 211.207031 143.636719 211.15625 143.640625 210.453125 144.34375 M 170.230469 145.140625 C 160.507812 146.738281 157.65625 147.148438 153.996094 147.492188 C 144.289062 148.40625 135.445312 148.730469 123.800781 148.601562 L 111.535156 148.46875 L 111.535156 149.394531 C 111.535156 150.632812 112.359375 150.792969 121.644531 151.335938 C 131.296875 151.898438 141.457031 151.382812 155.710938 149.601562 C 174.496094 147.253906 175.503906 147.039062 174.914062 145.496094 C 174.679688 144.886719 172.6875 144.734375 170.230469 145.140625 M 289.496094 149.480469 C 289.484375 153.382812 288.894531 159.226562 288.128906 163.097656 C 287.449219 166.519531 287.640625 167.515625 288.878906 167.039062 C 290.035156 166.59375 291.601562 155.453125 291.328125 149.601562 C 291.214844 147.191406 291.128906 146.949219 290.355469 146.835938 C 289.542969 146.722656 289.503906 146.832031 289.496094 149.480469 M 95.753906 148.785156 C 95.265625 150.0625 97.371094 150.816406 101.910156 150.996094 C 104.5625 151.101562 104.746094 151.058594 104.855469 150.296875 C 104.988281 149.363281 104.695312 149.269531 99.652344 148.664062 C 95.707031 148.1875 95.988281 148.179688 95.753906 148.785156 M 282.671875 149.316406 C 282.648438 149.472656 282.65625 152.148438 282.695312 155.261719 C 282.839844 167.792969 279.800781 182.984375 275.09375 193.273438 C 273.886719 195.910156 273.886719 196.972656 275.097656 196.972656 C 275.632812 196.972656 276.183594 196.117188 277.328125 193.480469 C 281.226562 184.519531 283.828125 173.097656 284.621094 161.492188 C 285.015625 155.6875 284.832031 150.964844 284.164062 149.695312 C 283.820312 149.042969 282.75 148.769531 282.671875 149.316406 M 166.832031 153.1875 C 165.921875 154.09375 165.886719 154.636719 166.664062 155.746094 C 167.398438 156.792969 168.847656 156.832031 169.851562 155.828125 C 170.765625 154.914062 170.785156 154.566406 169.996094 153.363281 C 169.25 152.222656 167.871094 152.148438 166.832031 153.1875 M 273.808594 155.324219 C 274.382812 159.21875 274.757812 164.515625 274.773438 168.921875 C 274.777344 171.453125 274.941406 173.621094 275.128906 173.738281 C 275.316406 173.855469 275.765625 173.835938 276.125 173.699219 C 276.722656 173.46875 276.757812 172.8125 276.554688 165.675781 C 276.296875 156.640625 275.800781 153.820312 274.4375 153.625 C 273.570312 153.5 273.550781 153.554688 273.808594 155.324219 M 146.3125 154.789062 C 144.996094 155.988281 144.828125 156.953125 145.6875 158.367188 C 147.503906 161.359375 151.675781 159.796875 150.832031 156.4375 C 150.238281 154.0625 148.007812 153.25 146.3125 154.789062 M 239.679688 155.066406 C 237.085938 155.652344 233.390625 156.574219 231.46875 157.121094 C 227.164062 158.335938 213.152344 161.816406 207.03125 163.191406 C 198.554688 165.09375 197.59375 165.308594 195.757812 165.746094 C 193.902344 166.1875 193.210938 166.882812 193.914062 167.585938 C 194.660156 168.335938 214.707031 163.847656 234.738281 158.449219 C 237.105469 157.808594 240.726562 156.980469 242.789062 156.601562 C 246.707031 155.886719 247.480469 155.515625 247.105469 154.53125 C 246.785156 153.699219 245.21875 153.8125 239.679688 155.066406 M 147.203125 156.921875 C 147.203125 157.714844 148.277344 158.304688 148.789062 157.792969 C 149.300781 157.28125 148.710938 156.207031 147.917969 156.207031 C 147.46875 156.207031 147.203125 156.472656 147.203125 156.921875 M 120.488281 158.179688 C 119.316406 158.746094 119.003906 160.191406 119.851562 161.128906 C 121.25 162.671875 124.179688 161.519531 124.179688 159.429688 C 124.179688 157.914062 122.335938 157.292969 120.488281 158.179688 M 132.621094 163.1875 C 132.488281 163.527344 132.5625 163.988281 132.785156 164.207031 C 133.359375 164.785156 134.449219 164.257812 134.300781 163.476562 C 134.132812 162.609375 132.921875 162.398438 132.621094 163.1875 M 150.742188 163.546875 C 150.480469 164.234375 150.863281 164.886719 151.527344 164.886719 C 152.214844 164.886719 152.523438 163.941406 152.003906 163.425781 C 151.429688 162.847656 150.996094 162.890625 150.742188 163.546875 M 183.085938 169.371094 C 182.441406 170.578125 182.566406 171.015625 184.933594 175.738281 C 189.195312 184.253906 193.535156 190.167969 200.785156 197.347656 C 208.980469 205.464844 219.054688 212.425781 230.621094 217.972656 C 234.691406 219.925781 237.925781 221.066406 240.613281 221.503906 C 243.136719 221.914062 243.832031 221.714844 243.832031 220.570312 C 243.832031 219.871094 243.515625 219.636719 242.039062 219.253906 C 233.453125 217.027344 228.304688 214.78125 220.046875 209.644531 C 213.453125 205.542969 208.324219 201.394531 202.777344 195.683594 C 195.726562 188.417969 189.953125 180.28125 186.558594 172.824219 C 185.847656 171.261719 185.132812 169.730469 184.972656 169.417969 C 184.527344 168.554688 183.539062 168.527344 183.085938 169.371094 M 142.324219 170.410156 C 141.386719 171.605469 141.382812 171.664062 142.128906 172.730469 C 143.417969 174.566406 146.734375 173.171875 146.207031 171.015625 C 145.902344 169.773438 145.453125 169.429688 144.117188 169.421875 C 143.46875 169.417969 142.824219 169.773438 142.324219 170.410156 M 188.382812 170.148438 C 187.792969 170.515625 188.074219 171.625 188.808594 171.839844 C 189.074219 171.914062 191.074219 172.347656 193.253906 172.804688 C 195.433594 173.257812 198.511719 174.023438 200.097656 174.5 C 203.078125 175.398438 203.992188 175.300781 203.761719 174.105469 C 203.578125 173.140625 202.066406 172.699219 189.664062 169.992188 C 189.246094 169.902344 188.671875 169.972656 188.382812 170.148438 M 119.65625 174.214844 C 118.238281 176.015625 119.367188 178.25 121.699219 178.25 C 123.425781 178.25 124.554688 177.203125 124.554688 175.609375 C 124.554688 173.199219 121.203125 172.242188 119.65625 174.214844 M 86.054688 174.589844 C 84.992188 174.976562 83.429688 176.710938 83.019531 177.960938 C 81.941406 181.226562 85.765625 183.386719 88.945312 181.304688 C 90.179688 180.492188 91.335938 178.527344 91.335938 177.234375 C 91.339844 175.652344 89.816406 174.316406 88.054688 174.355469 C 87.265625 174.371094 86.367188 174.476562 86.054688 174.589844 M 212.378906 174.574219 C 211.25 175.703125 214.269531 177.679688 220.851562 180.125 C 232.011719 184.265625 250.871094 187.527344 264.402344 187.660156 L 270.820312 187.722656 L 270.820312 186.796875 C 270.820312 185.5625 269.988281 185.421875 260.820312 185.105469 C 251.160156 184.769531 244.953125 183.921875 235.527344 181.640625 C 228.429688 179.921875 216.941406 176.261719 214.839844 175.046875 C 213.539062 174.292969 212.800781 174.152344 212.378906 174.574219 M 137.671875 179.511719 C 136.613281 179.757812 136.835938 181.117188 137.933594 181.117188 C 138.441406 181.117188 138.96875 180.933594 139.109375 180.703125 C 139.460938 180.136719 138.480469 179.324219 137.671875 179.511719 M 224.785156 186.382812 C 224.421875 186.972656 224.898438 187.535156 225.765625 187.535156 C 226.285156 187.535156 226.484375 187.328125 226.398438 186.878906 C 226.253906 186.128906 225.152344 185.789062 224.785156 186.382812 M 237.199219 187.664062 C 237.074219 187.988281 237.082031 188.429688 237.214844 188.644531 C 237.648438 189.347656 242.457031 190.566406 245.15625 190.65625 C 247.574219 190.734375 247.796875 190.679688 247.796875 189.988281 C 247.796875 189.363281 247.445312 189.183594 245.71875 188.929688 C 243.761719 188.644531 240.140625 187.863281 238.269531 187.316406 C 237.6875 187.148438 237.355469 187.253906 237.199219 187.664062 M 231.238281 190.207031 C 230.050781 191.136719 229.96875 192.167969 231 193.199219 C 231.84375 194.042969 233.980469 194.21875 234.699219 193.5 C 234.949219 193.25 235.152344 192.429688 235.152344 191.671875 C 235.152344 190.566406 234.964844 190.214844 234.191406 189.859375 C 232.851562 189.25 232.382812 189.304688 231.238281 190.207031 M 114.570312 191.027344 C 114.488281 191.285156 114.316406 192.601562 114.1875 193.953125 C 113.96875 196.191406 112.648438 203.964844 111.105469 212.070312 C 110.769531 213.835938 110.167969 216.296875 109.765625 217.542969 C 109.363281 218.789062 107.777344 224.148438 106.234375 229.457031 C 103.824219 237.753906 102.5625 241.632812 99.824219 249.128906 C 99.546875 249.894531 98.113281 253.027344 96.636719 256.097656 C 95.164062 259.164062 94.007812 261.933594 94.070312 262.257812 C 94.132812 262.585938 94.570312 262.839844 95.082031 262.839844 C 98.046875 262.839844 107.421875 239.019531 111.351562 221.507812 C 112.167969 217.875 113.179688 213.710938 113.605469 212.257812 C 116.566406 202.125 117.835938 193.527344 116.683594 191.40625 C 116.191406 190.496094 114.8125 190.25 114.570312 191.027344 M 262.5 194.125 C 261.992188 194.632812 261.574219 195.320312 261.574219 195.652344 C 261.574219 196.550781 263.304688 198.105469 264.304688 198.105469 C 265.660156 198.105469 266.859375 197.070312 266.859375 195.902344 C 266.859375 193.335938 264.324219 192.300781 262.5 194.125 M 124.667969 195.402344 C 123.609375 196.082031 116.867188 213.476562 112.136719 227.734375 C 107.289062 242.347656 105.285156 251.976562 105.328125 260.433594 C 105.355469 266.082031 105.652344 267.746094 106.632812 267.746094 C 107.347656 267.746094 107.382812 267.46875 107.40625 261.519531 C 107.433594 254.539062 108 250.390625 110.0625 242.078125 C 112.125 233.765625 119.546875 212.097656 124.328125 200.421875 C 125.285156 198.089844 126.066406 196.039062 126.066406 195.863281 C 126.066406 195.414062 125.128906 195.105469 124.667969 195.402344 M 168.484375 196.457031 C 167.414062 197.402344 166.691406 199.382812 166.988281 200.5625 C 167.261719 201.648438 169.222656 203.007812 170.527344 203.011719 C 171.742188 203.011719 174.277344 201.648438 174.769531 200.726562 C 175.425781 199.5 175.058594 197.699219 173.996094 196.90625 C 173.476562 196.519531 172.203125 196.101562 171.164062 195.980469 C 169.652344 195.800781 169.125 195.894531 168.484375 196.457031 M 245.4375 199.136719 C 245.179688 199.226562 244.964844 199.605469 244.964844 199.984375 C 244.964844 200.714844 245.617188 201.113281 246.382812 200.847656 C 246.640625 200.757812 246.851562 200.375 246.851562 200 C 246.851562 199.265625 246.203125 198.867188 245.4375 199.136719 M 257.574219 202.398438 C 257.269531 203.195312 257.699219 203.765625 258.601562 203.765625 C 259.171875 203.765625 259.332031 203.554688 259.242188 202.921875 C 259.101562 201.933594 257.898438 201.558594 257.574219 202.398438 M 269.140625 210.421875 C 265.277344 214.347656 261.824219 218.183594 261.464844 218.941406 C 258.757812 224.648438 260.226562 241.183594 265.164062 260.574219 C 269.382812 277.132812 272.777344 286.863281 276.054688 291.804688 C 278.804688 295.945312 282.867188 298.796875 287.242188 299.664062 C 288.382812 299.890625 291.78125 300.078125 294.789062 300.082031 C 300.71875 300.089844 305.691406 300.761719 308.261719 301.898438 C 309.652344 302.515625 309.890625 302.78125 309.890625 303.742188 C 309.890625 305.222656 308.035156 306.691406 303.402344 308.871094 C 296.507812 312.121094 287.296875 315.308594 275.359375 318.578125 C 270.339844 319.953125 269.878906 320.183594 269.878906 321.316406 C 269.878906 323.140625 271.4375 322.9375 280.015625 319.992188 C 283.054688 318.945312 289.449219 316.804688 294.222656 315.234375 C 306.105469 311.328125 310.082031 309.261719 311.429688 306.296875 C 313.871094 300.917969 309.632812 297.785156 299.953125 297.808594 C 295.898438 297.820312 293.15625 297.5 289.128906 296.539062 C 279.769531 294.304688 276.246094 289.613281 273.257812 275.386719 C 272.0625 269.6875 271.238281 266.664062 267.847656 255.476562 C 264.230469 243.550781 263.023438 237.929688 262.816406 232.074219 C 262.472656 222.371094 264.609375 217.714844 273.542969 208.6875 C 275.691406 206.515625 277.402344 204.492188 277.34375 204.1875 C 277.054688 202.691406 275.835938 203.621094 269.140625 210.421875 M 234.773438 204.253906 C 233.59375 204.847656 233.316406 206.558594 234.238281 207.574219 C 235.113281 208.539062 237.191406 208.519531 238.171875 207.539062 C 239.347656 206.363281 239.0625 205.183594 237.390625 204.320312 C 236.101562 203.652344 235.972656 203.648438 234.773438 204.253906 M 261.742188 206.941406 C 257.300781 209.257812 251.960938 210.578125 246.585938 210.683594 C 243.578125 210.742188 243.265625 210.816406 243.265625 211.480469 C 243.265625 212.648438 245.328125 212.964844 249.726562 212.476562 C 254.59375 211.929688 259.125 210.679688 262.710938 208.894531 C 265.964844 207.273438 267.0625 206.347656 266.734375 205.496094 C 266.398438 204.621094 265.921875 204.757812 261.742188 206.941406 M 260.441406 213.25 C 257.992188 214.730469 252.734375 216.59375 250.984375 216.605469 C 249.152344 216.617188 248.316406 217.03125 248.4375 217.875 C 248.539062 218.585938 248.761719 218.664062 250.4375 218.5625 C 253.191406 218.398438 256.445312 217.457031 259.875 215.828125 C 263.261719 214.21875 264.671875 213.09375 264.351562 212.257812 C 264.023438 211.398438 263.125 211.625 260.441406 213.25 M 203.320312 213.078125 C 203.179688 213.214844 203.066406 213.953125 203.066406 214.71875 C 203.066406 216.265625 204.089844 217.503906 205.195312 217.289062 C 206.0625 217.125 206.855469 214.652344 206.117188 214.410156 C 205.847656 214.316406 205.351562 213.925781 205.015625 213.535156 C 204.390625 212.804688 203.761719 212.636719 203.320312 213.078125 M 249.746094 226.578125 C 249.632812 226.875 250.011719 227.714844 250.589844 228.441406 C 253.21875 231.75 258.097656 247.335938 260.820312 261.140625 C 263.539062 274.921875 265.335938 289.175781 265.34375 297.0625 C 265.347656 300.957031 265.523438 301.527344 266.703125 301.527344 C 267.964844 301.527344 268.191406 300.390625 268.121094 294.355469 C 268.023438 286.21875 266.601562 274.621094 264.601562 265.667969 C 262.9375 258.210938 258.519531 242.113281 256.445312 235.941406 C 254.679688 230.679688 253.5625 228.25 252.359375 227.046875 C 251.253906 225.941406 250.070312 225.730469 249.746094 226.578125 M 86.808594 263.445312 C 79.46875 263.929688 70.636719 264.898438 67.9375 265.511719 C 64.800781 266.226562 62.699219 267.414062 61.773438 269 C 61.125 270.113281 61.09375 270.4375 61.507812 271.832031 C 62.667969 275.765625 69.074219 279.6875 79.261719 282.714844 C 85.113281 284.449219 111.914062 291.0625 115.816406 291.734375 C 124.140625 293.164062 128.570312 292.277344 129.277344 289.050781 C 129.824219 286.566406 126.851562 283.054688 119.839844 277.898438 C 117.609375 276.257812 114.660156 274.023438 113.28125 272.929688 C 110.566406 270.769531 108.992188 270.425781 108.777344 271.941406 C 108.640625 272.898438 110.835938 274.96875 115.738281 278.5 C 121.289062 282.503906 124.351562 285.136719 125.125 286.570312 C 125.824219 287.871094 125.824219 287.964844 125.191406 288.597656 C 124.238281 289.554688 118.773438 289.703125 113.984375 288.902344 C 106.996094 287.734375 85.367188 282.039062 78.503906 279.5625 C 71.375 276.988281 65.078125 273.304688 64.082031 271.121094 C 63.742188 270.371094 63.789062 270.0625 64.351562 269.441406 C 65.910156 267.71875 70.839844 266.917969 82.46875 266.496094 C 91.167969 266.179688 92.886719 265.839844 93.164062 264.390625 C 93.300781 263.6875 92.628906 262.996094 91.90625 263.085938 C 91.699219 263.113281 89.40625 263.277344 86.808594 263.445312 M 277.292969 299.28125 C 275.867188 299.894531 273.796875 300.503906 272.6875 300.636719 C 270.667969 300.875 270.0625 301.359375 270.628906 302.28125 C 271.117188 303.066406 274.660156 302.515625 277.960938 301.140625 C 280.375 300.136719 280.847656 299.800781 280.75 299.15625 C 280.582031 298.023438 280.160156 298.039062 277.292969 299.28125 M 277.804688 301.71875 C 277.285156 302.015625 276.585938 302.261719 276.246094 302.269531 C 275.910156 302.277344 275.414062 302.546875 275.148438 302.867188 C 274.75 303.347656 274.757812 303.546875 275.195312 303.976562 C 275.652344 304.425781 276.027344 304.394531 277.78125 303.773438 C 279.929688 303.011719 280.507812 302.5 280.183594 301.65625 C 279.933594 301.007812 279.003906 301.03125 277.804688 301.71875 M 261.652344 304.300781 C 259.257812 306.507812 254.796875 309.835938 249.21875 313.582031 C 242.714844 317.945312 241.28125 319.96875 242.921875 322.472656 C 244.058594 324.207031 246.25 324.679688 252.246094 324.472656 C 257.609375 324.292969 259.308594 323.90625 259.308594 322.863281 C 259.308594 321.878906 258.386719 321.738281 252.703125 321.828125 C 246.925781 321.925781 244.949219 321.675781 244.667969 320.824219 C 244.40625 320.039062 247.550781 317.410156 254.464844 312.632812 C 261.441406 307.8125 264.972656 304.726562 264.972656 303.449219 C 264.972656 302.152344 263.597656 302.503906 261.652344 304.300781 M 297.808594 307.347656 C 294.265625 309.152344 286.878906 311.726562 280.917969 313.230469 C 279.667969 313.546875 279.316406 313.8125 279.316406 314.429688 C 279.316406 315.167969 279.453125 315.203125 281.414062 314.972656 C 285.636719 314.476562 300.777344 308.875 301.628906 307.496094 C 302.019531 306.863281 301.59375 306.054688 300.882812 306.078125 C 300.542969 306.085938 299.160156 306.65625 297.808594 307.347656 M 264.40625 308.917969 C 260.199219 312.355469 256.628906 315.953125 256.757812 316.625 C 256.957031 317.664062 258.089844 317.214844 260.125 315.285156 C 261.234375 314.238281 263.800781 312.046875 265.835938 310.421875 C 267.867188 308.792969 269.464844 307.273438 269.390625 307.042969 C 269.316406 306.8125 268.84375 306.585938 268.339844 306.539062 C 267.699219 306.480469 266.519531 307.195312 264.40625 308.917969 M 283.832031 307.484375 C 280.0625 309.851562 276.886719 310.902344 272.378906 311.277344 C 269.648438 311.503906 269.3125 311.613281 269.3125 312.285156 C 269.3125 312.988281 269.550781 313.039062 272.710938 313.003906 C 276.671875 312.957031 280.742188 311.757812 284.332031 309.574219 C 286.019531 308.550781 286.5 308.0625 286.414062 307.460938 C 286.242188 306.304688 285.699219 306.3125 283.832031 307.484375 M 260.0625 318.203125 C 256.097656 319.050781 255.535156 319.277344 255.535156 320.039062 C 255.535156 320.921875 256.78125 320.984375 260.148438 320.273438 C 262.714844 319.730469 263.429688 319.195312 262.71875 318.339844 C 262.453125 318.019531 262.128906 317.777344 262 317.800781 C 261.871094 317.820312 261 318.003906 260.0625 318.203125 " fill-opacity="1" fill-rule="evenodd"/></g></svg>